<svg xmlns="http://www.w3.org/2000/svg" viewBox="0 0 390.4 390.4"><path d="M323.4 211.6c-9.9-12.1-26-18.7-47-19.2a10 10 0 0 0-9.9-8.9h-200a10 10 0 0 0-10 10v116c0 23 12.8 43.7 33.5 53.9a19.5 19.5 0 0 0 18 27h117a19.5 19.5 0 0 0 18-27 59.6 59.6 0 0 0 32.7-44 70 70 0 0 0 42.6-29 90.2 90.2 0 0 0 13.8-29.8v-.3c4.2-20.3 1.2-36.6-8.7-48.7zM302.8 254c-.2 1-2.7 10-9 18.9a42 42 0 0 1-17.3 14.7v-65.3c7.6.2 18.5 1.8 23.7 8.2 3.9 4.7 4.8 12.6 2.6 23.5zM122.3 71.2c16.2 2 32.8 2.2 46.9 2.2h13.7c7-.1 14.2-.2 21.2 0h1.1a404.7 404.7 0 0 0 13-.2l-14.4 2.6c-9.6 1.7-19.5 3.5-26.6 5.2l-1.3.3c-13.8 3.2-34.7 8.2-41.4 23a20.2 20.2 0 0 0 .5 18 22 22 0 0 0 15.6 11.5c2.3.4 4.8.8 7.5.8 4.4 0 8.8-.4 13-1.2 21.7-4.3 22 1.3 22 2 0 3.6-7.2 10-10.3 12.8l-1.6 1.4-2.8 2.5c-6.2 5.6-14.7 13.2-13.7 21.5a2 2 0 0 0 2 1.8 2 2 0 0 0 2-1.9c.2-3.4 3.6-6.4 6.7-9a158.5 158.5 0 0 1 13.1-9.5h.1c5.7-4.1 15.2-11 16.5-19 .5-3.3-.3-6.5-2.5-9.4-6-8.1-16.8-8.8-26.5-8.8H170.2l-5.4.2c-3 0-5.6-.2-7.8-.5-4.6-.6-6-3-5-4.8 3.1-5.3 19-10 47.5-13.8l3.6-.4 5.2-.8c10.2-1.5 20.6-3 30.6-6 17.9-5.3 21.3-14.3 20.9-21.1v-.4a14 14 0 0 0 0-.4c-.9-7.1-5.8-12.9-13.6-16a103 103 0 0 0-36.2-4.4h-3c-10 0-20.2.2-30 .4-8.6.2-17.5.4-26.2.4a420 420 0 0 1-23.5-.6 147 147 0 0 1-18.3-2c-5-.9-11-2-14.9-5.3-3.5-3 .2-9.5 2.6-12.5 7.3-9.2 20-13 31.6-15.5 10.5-2.3 22.1-3.5 36.4-3.9a268 268 0 0 1 26.8.7 2 2 0 0 0 .4-4A185.1 185.1 0 0 0 126.5.8c-19 1.8-43.3 8.6-51.5 30.8-2.8 7.6-2.4 14.3 1.2 20 7.8 12.8 29.4 17.8 46.1 19.7z"/></svg>